<svg width="903" height="258" viewBox="0 0 903 258" fill="none" xmlns="http://www.w3.org/2000/svg">
<mask id="path-1-outside-1_6700_709" maskUnits="userSpaceOnUse" x="0" y="0" width="903" height="258" fill="black">
<rect fill="white" width="903" height="258"/>
<path d="M1.58 198V1.98H42.89V198H1.58ZM126.79 200.7C114.73 200.7 103.93 197.73 94.3904 191.79C85.0304 185.85 77.5604 177.75 71.9804 167.49C66.5804 157.23 63.8804 145.53 63.8804 132.39C63.8804 119.25 66.5804 107.55 71.9804 97.29C77.5604 87.03 85.0304 78.93 94.3904 72.99C103.93 67.05 114.73 64.08 126.79 64.08C135.61 64.08 143.53 65.79 150.55 69.21C157.75 72.63 163.6 77.4 168.1 83.52C172.6 89.46 175.12 96.3 175.66 104.04V160.74C175.12 168.48 172.6 175.41 168.1 181.53C163.78 187.47 158.02 192.15 150.82 195.57C143.62 198.99 135.61 200.7 126.79 200.7ZM135.16 163.44C143.98 163.44 151.09 160.56 156.49 154.8C161.89 148.86 164.59 141.39 164.59 132.39C164.59 126.27 163.33 120.87 160.81 116.19C158.47 111.51 155.05 107.91 150.55 105.39C146.23 102.69 141.19 101.34 135.43 101.34C129.67 101.34 124.54 102.69 120.04 105.39C115.72 107.91 112.21 111.51 109.51 116.19C106.99 120.87 105.73 126.27 105.73 132.39C105.73 138.33 106.99 143.64 109.51 148.32C112.03 153 115.54 156.69 120.04 159.39C124.54 162.09 129.58 163.44 135.16 163.44ZM162.97 198V162.63L169.18 130.77L162.97 98.91V66.78H203.47V198H162.97ZM319.227 198V123.21C319.227 116.37 317.067 110.88 312.747 106.74C308.607 102.42 303.297 100.26 296.817 100.26C292.317 100.26 288.357 101.25 284.937 103.23C281.517 105.03 278.817 107.73 276.837 111.33C274.857 114.75 273.867 118.71 273.867 123.21L257.937 115.38C257.937 105.12 260.187 96.12 264.687 88.38C269.187 80.64 275.397 74.7 283.317 70.56C291.417 66.24 300.507 64.08 310.587 64.08C320.307 64.08 328.857 66.42 336.237 71.1C343.797 75.6 349.737 81.63 354.057 89.19C358.377 96.75 360.537 105.03 360.537 114.03V198H319.227ZM232.557 198V66.78H273.867V198H232.557ZM442.958 200.7C430.538 200.7 419.468 197.73 409.748 191.79C400.208 185.85 392.648 177.75 387.068 167.49C381.668 157.23 378.968 145.53 378.968 132.39C378.968 119.25 381.668 107.55 387.068 97.29C392.648 87.03 400.208 78.93 409.748 72.99C419.468 67.05 430.538 64.08 442.958 64.08C451.958 64.08 460.058 65.79 467.258 69.21C474.638 72.63 480.668 77.4 485.348 83.52C490.208 89.46 492.908 96.3 493.448 104.04V159.39C492.908 167.13 490.298 174.15 485.618 180.45C480.938 186.57 474.908 191.52 467.528 195.3C460.148 198.9 451.958 200.7 442.958 200.7ZM450.248 163.44C456.188 163.44 461.318 162.18 465.638 159.66C469.958 156.96 473.378 153.27 475.898 148.59C478.418 143.91 479.678 138.51 479.678 132.39C479.678 126.27 478.418 120.96 475.898 116.46C473.558 111.78 470.138 108.09 465.638 105.39C461.318 102.69 456.278 101.34 450.518 101.34C444.758 101.34 439.628 102.69 435.128 105.39C430.808 108.09 427.298 111.78 424.598 116.46C422.078 121.14 420.818 126.45 420.818 132.39C420.818 138.33 422.078 143.64 424.598 148.32C427.118 153 430.628 156.69 435.128 159.39C439.628 162.09 444.668 163.44 450.248 163.44ZM518.558 198H478.058V162.63L484.268 130.77L477.248 98.91V1.98H518.558V198ZM547.644 198V66.78H588.954V198H547.644ZM568.434 48.69C561.954 48.69 556.554 46.53 552.234 42.21C548.094 37.71 546.024 32.31 546.024 26.01C546.024 19.53 548.094 14.13 552.234 9.80999C556.554 5.48999 561.954 3.33 568.434 3.33C574.914 3.33 580.224 5.48999 584.364 9.80999C588.504 14.13 590.574 19.53 590.574 26.01C590.574 32.31 588.504 37.71 584.364 42.21C580.224 46.53 574.914 48.69 568.434 48.69ZM704.715 198V123.21C704.715 116.37 702.555 110.88 698.235 106.74C694.095 102.42 688.785 100.26 682.305 100.26C677.805 100.26 673.845 101.25 670.425 103.23C667.005 105.03 664.305 107.73 662.325 111.33C660.345 114.75 659.355 118.71 659.355 123.21L643.425 115.38C643.425 105.12 645.675 96.12 650.175 88.38C654.675 80.64 660.885 74.7 668.805 70.56C676.905 66.24 685.995 64.08 696.075 64.08C705.795 64.08 714.345 66.42 721.725 71.1C729.285 75.6 735.225 81.63 739.545 89.19C743.865 96.75 746.025 105.03 746.025 114.03V198H704.715ZM618.045 198V66.78H659.355V198H618.045ZM828.177 256.86C813.777 256.86 801.087 254.34 790.107 249.3C779.307 244.44 770.757 237.51 764.457 228.51L789.837 203.13C794.517 208.71 799.737 212.94 805.497 215.82C811.437 218.7 818.547 220.14 826.827 220.14C837.087 220.14 845.097 217.62 850.857 212.58C856.797 207.54 859.767 200.43 859.767 191.25V157.77L866.787 129.15L860.577 100.53V66.78H901.077V190.17C901.077 203.67 897.927 215.37 891.627 225.27C885.327 235.17 876.687 242.91 865.707 248.49C854.727 254.07 842.217 256.86 828.177 256.86ZM826.287 193.95C814.227 193.95 803.517 191.07 794.157 185.31C784.797 179.55 777.417 171.72 772.017 161.82C766.617 151.92 763.917 140.94 763.917 128.88C763.917 116.64 766.617 105.66 772.017 95.94C777.417 86.04 784.797 78.3 794.157 72.72C803.517 66.96 814.227 64.08 826.287 64.08C835.287 64.08 843.297 65.79 850.317 69.21C857.517 72.45 863.277 77.13 867.597 83.25C872.097 89.19 874.617 96.12 875.157 104.04V153.99C874.617 161.73 872.097 168.66 867.597 174.78C863.277 180.72 857.517 185.4 850.317 188.82C843.117 192.24 835.107 193.95 826.287 193.95ZM834.117 157.23C839.877 157.23 844.827 155.97 848.967 153.45C853.287 150.93 856.527 147.6 858.687 143.46C861.027 139.14 862.197 134.28 862.197 128.88C862.197 123.48 861.027 118.62 858.687 114.3C856.527 109.98 853.287 106.56 848.967 104.04C844.827 101.52 839.877 100.26 834.117 100.26C828.537 100.26 823.587 101.52 819.267 104.04C814.947 106.56 811.617 109.98 809.277 114.3C806.937 118.62 805.767 123.48 805.767 128.88C805.767 133.92 806.937 138.69 809.277 143.19C811.617 147.51 814.857 150.93 818.997 153.45C823.317 155.97 828.357 157.23 834.117 157.23Z"/>
</mask>
<path d="M1.58 198H0.58V199H1.58V198ZM1.58 1.98V0.979996H0.58V1.98H1.58ZM42.89 1.98H43.89V0.979996H42.89V1.98ZM42.89 198V199H43.89V198H42.89ZM1.58 198H2.58V1.98H1.58H0.58V198H1.58ZM1.58 1.98V2.98H42.89V1.98V0.979996H1.58V1.98ZM42.89 1.98H41.89V198H42.89H43.89V1.98H42.89ZM42.89 198V197H1.58V198V199H42.89V198ZM94.3904 191.79L93.8545 192.634L93.8618 192.639L94.3904 191.79ZM71.9804 167.49L71.0954 167.956L71.1019 167.968L71.9804 167.49ZM71.9804 97.29L71.1018 96.8122L71.0955 96.8242L71.9804 97.29ZM94.3904 72.99L93.8618 72.1411L93.8546 72.1457L94.3904 72.99ZM150.55 69.21L150.112 70.109L150.121 70.1133L150.55 69.21ZM168.1 83.52L167.295 84.1124L167.299 84.1181L167.303 84.1239L168.1 83.52ZM175.66 104.04H176.66V104.005L176.658 103.97L175.66 104.04ZM175.66 160.74L176.658 160.81L176.66 160.775V160.74H175.66ZM168.1 181.53L167.295 180.938L167.292 180.942L168.1 181.53ZM150.82 195.57L150.391 194.667L150.82 195.57ZM156.49 154.8L157.22 155.484L157.225 155.478L157.23 155.473L156.49 154.8ZM160.81 116.19L159.916 116.637L159.923 116.651L159.93 116.664L160.81 116.19ZM150.55 105.39L150.02 106.238L150.041 106.251L150.062 106.262L150.55 105.39ZM120.04 105.39L120.544 106.254L120.555 106.247L120.04 105.39ZM109.51 116.19L108.644 115.69L108.637 115.703L108.63 115.716L109.51 116.19ZM109.51 148.32L108.63 148.794L109.51 148.32ZM162.97 198H161.97V199H162.97V198ZM162.97 162.63L161.989 162.439L161.97 162.533V162.63H162.97ZM169.18 130.77L170.162 130.961L170.199 130.77L170.162 130.579L169.18 130.77ZM162.97 98.91H161.97V99.0065L161.989 99.1013L162.97 98.91ZM162.97 66.78V65.78H161.97V66.78H162.97ZM203.47 66.78H204.47V65.78H203.47V66.78ZM203.47 198V199H204.47V198H203.47ZM126.79 200.7V199.7C114.903 199.7 104.289 196.775 94.919 190.941L94.3904 191.79L93.8618 192.639C103.572 198.685 114.558 201.7 126.79 201.7V200.7ZM94.3904 191.79L94.9262 190.946C85.7175 185.102 78.3622 177.131 72.8589 167.012L71.9804 167.49L71.1019 167.968C76.7586 178.369 84.3433 186.598 93.8546 192.634L94.3904 191.79ZM71.9804 167.49L72.8653 167.024C67.5505 156.926 64.8804 145.39 64.8804 132.39H63.8804H62.8804C62.8804 145.67 65.6103 157.534 71.0955 167.956L71.9804 167.49ZM63.8804 132.39H64.8804C64.8804 119.39 67.5505 107.854 72.8653 97.7557L71.9804 97.29L71.0955 96.8242C65.6103 107.246 62.8804 119.11 62.8804 132.39H63.8804ZM71.9804 97.29L72.8589 97.7678C78.3622 87.6488 85.7175 79.6783 94.9262 73.8343L94.3904 72.99L93.8546 72.1457C84.3433 78.1817 76.7586 86.4112 71.1019 96.8122L71.9804 97.29ZM94.3904 72.99L94.919 73.8389C104.289 68.0049 114.903 65.08 126.79 65.08V64.08V63.08C114.558 63.08 103.572 66.0951 93.8618 72.1411L94.3904 72.99ZM126.79 64.08V65.08C135.478 65.08 143.246 66.7636 150.112 70.109L150.55 69.21L150.988 68.311C143.815 64.8164 135.742 63.08 126.79 63.08V64.08ZM150.55 69.21L150.121 70.1133C157.18 73.466 162.898 78.1322 167.295 84.1124L168.1 83.52L168.906 82.9276C164.303 76.6678 158.321 71.794 150.979 68.3067L150.55 69.21ZM168.1 83.52L167.303 84.1239C171.681 89.9024 174.136 96.5549 174.663 104.11L175.66 104.04L176.658 103.97C176.105 96.045 173.52 89.0176 168.897 82.9161L168.1 83.52ZM175.66 104.04H174.66V160.74H175.66H176.66V104.04H175.66ZM175.66 160.74L174.663 160.67C174.136 168.226 171.68 174.974 167.295 180.938L168.1 181.53L168.906 182.122C173.521 175.846 176.105 168.734 176.658 160.81L175.66 160.74ZM168.1 181.53L167.292 180.942C163.078 186.735 157.454 191.312 150.391 194.667L150.82 195.57L151.249 196.473C158.587 192.988 164.483 188.205 168.909 182.118L168.1 181.53ZM150.82 195.57L150.391 194.667C143.339 198.017 135.478 199.7 126.79 199.7V200.7V201.7C135.743 201.7 143.902 199.963 151.249 196.473L150.82 195.57ZM135.16 163.44V164.44C144.221 164.44 151.608 161.47 157.22 155.484L156.49 154.8L155.761 154.116C150.573 159.65 143.74 162.44 135.16 162.44V163.44ZM156.49 154.8L157.23 155.473C162.818 149.326 165.59 141.606 165.59 132.39H164.59H163.59C163.59 141.174 160.962 148.394 155.75 154.127L156.49 154.8ZM164.59 132.39H165.59C165.59 126.13 164.3 120.562 161.691 115.716L160.81 116.19L159.93 116.664C162.36 121.178 163.59 126.41 163.59 132.39H164.59ZM160.81 116.19L161.705 115.743C159.277 110.886 155.717 107.137 151.039 104.517L150.55 105.39L150.062 106.262C154.384 108.683 157.664 112.134 159.916 116.637L160.81 116.19ZM150.55 105.39L151.08 104.542C146.581 101.73 141.353 100.34 135.43 100.34V101.34V102.34C141.028 102.34 145.879 103.65 150.02 106.238L150.55 105.39ZM135.43 101.34V100.34C129.507 100.34 124.196 101.73 119.526 104.533L120.04 105.39L120.555 106.247C124.885 103.65 129.833 102.34 135.43 102.34V101.34ZM120.04 105.39L119.537 104.526C115.054 107.141 111.424 110.872 108.644 115.69L109.51 116.19L110.377 116.69C112.997 112.148 116.387 108.679 120.544 106.254L120.04 105.39ZM109.51 116.19L108.63 115.716C106.02 120.562 104.73 126.13 104.73 132.39H105.73H106.73C106.73 126.41 107.96 121.178 110.391 116.664L109.51 116.19ZM105.73 132.39H104.73C104.73 138.476 106.023 143.952 108.63 148.794L109.51 148.32L110.391 147.846C107.958 143.328 106.73 138.184 106.73 132.39H105.73ZM109.51 148.32L108.63 148.794C111.234 153.63 114.87 157.454 119.526 160.247L120.04 159.39L120.555 158.533C116.211 155.926 112.827 152.37 110.391 147.846L109.51 148.32ZM120.04 159.39L119.526 160.247C124.191 163.047 129.411 164.44 135.16 164.44V163.44V162.44C129.75 162.44 124.89 161.133 120.555 158.533L120.04 159.39ZM162.97 198H163.97V162.63H162.97H161.97V198H162.97ZM162.97 162.63L163.952 162.821L170.162 130.961L169.18 130.77L168.199 130.579L161.989 162.439L162.97 162.63ZM169.18 130.77L170.162 130.579L163.952 98.7187L162.97 98.91L161.989 99.1013L168.199 130.961L169.18 130.77ZM162.97 98.91H163.97V66.78H162.97H161.97V98.91H162.97ZM162.97 66.78V67.78H203.47V66.78V65.78H162.97V66.78ZM203.47 66.78H202.47V198H203.47H204.47V66.78H203.47ZM203.47 198V197H162.97V198V199H203.47V198ZM319.227 198H318.227V199H319.227V198ZM312.747 106.74L312.025 107.432L312.039 107.447L312.055 107.462L312.747 106.74ZM284.937 103.23L285.402 104.115L285.42 104.106L285.438 104.095L284.937 103.23ZM276.837 111.33L277.702 111.831L277.707 111.822L277.713 111.812L276.837 111.33ZM273.867 123.21L273.425 124.107L274.867 124.816V123.21H273.867ZM257.937 115.38H256.937V116.003L257.495 116.277L257.937 115.38ZM283.317 70.56L283.78 71.4462L283.787 71.4423L283.317 70.56ZM336.237 71.1L335.701 71.9445L335.713 71.9521L335.725 71.9593L336.237 71.1ZM360.537 198V199H361.537V198H360.537ZM232.557 198H231.557V199H232.557V198ZM232.557 66.78V65.78H231.557V66.78H232.557ZM273.867 66.78H274.867V65.78H273.867V66.78ZM273.867 198V199H274.867V198H273.867ZM319.227 198H320.227V123.21H319.227H318.227V198H319.227ZM319.227 123.21H320.227C320.227 116.14 317.984 110.374 313.438 106.018L312.747 106.74L312.055 107.462C316.149 111.386 318.227 116.6 318.227 123.21H319.227ZM312.747 106.74L313.469 106.048C309.123 101.514 303.544 99.26 296.817 99.26V100.26V101.26C303.049 101.26 308.09 103.326 312.025 107.432L312.747 106.74ZM296.817 100.26V99.26C292.165 99.26 288.028 100.285 284.436 102.365L284.937 103.23L285.438 104.095C288.685 102.215 292.468 101.26 296.817 101.26V100.26ZM284.937 103.23L284.471 102.345C280.866 104.242 278.029 107.088 275.96 110.848L276.837 111.33L277.713 111.812C279.605 108.372 282.167 105.818 285.402 104.115L284.937 103.23ZM276.837 111.33L275.971 110.829C273.891 114.421 272.867 118.559 272.867 123.21H273.867H274.867C274.867 118.861 275.822 115.079 277.702 111.831L276.837 111.33ZM273.867 123.21L274.308 122.313L258.378 114.483L257.937 115.38L257.495 116.277L273.425 124.107L273.867 123.21ZM257.937 115.38H258.937C258.937 105.27 261.152 96.4488 265.551 88.8826L264.687 88.38L263.822 87.8774C259.221 95.7912 256.937 104.97 256.937 115.38H257.937ZM264.687 88.38L265.551 88.8826C269.956 81.3055 276.027 75.4986 283.78 71.4462L283.317 70.56L282.853 69.6738C274.766 73.9014 268.417 79.9745 263.822 87.8774L264.687 88.38ZM283.317 70.56L283.787 71.4423C291.728 67.207 300.654 65.08 310.587 65.08V64.08V63.08C300.359 63.08 291.105 65.273 282.846 69.6776L283.317 70.56ZM310.587 64.08V65.08C320.139 65.08 328.499 67.3772 335.701 71.9445L336.237 71.1L336.772 70.2555C329.214 65.4628 320.474 63.08 310.587 63.08V64.08ZM336.237 71.1L335.725 71.9593C343.138 76.372 348.955 82.2776 353.188 89.6861L354.057 89.19L354.925 88.6938C350.518 80.9824 344.455 74.828 336.748 70.2407L336.237 71.1ZM354.057 89.19L353.188 89.6861C357.419 97.0898 359.537 105.198 359.537 114.03H360.537H361.537C361.537 104.862 359.334 96.4102 354.925 88.6938L354.057 89.19ZM360.537 114.03H359.537V198H360.537H361.537V114.03H360.537ZM360.537 198V197H319.227V198V199H360.537V198ZM232.557 198H233.557V66.78H232.557H231.557V198H232.557ZM232.557 66.78V67.78H273.867V66.78V65.78H232.557V66.78ZM273.867 66.78H272.867V198H273.867H274.867V66.78H273.867ZM273.867 198V197H232.557V198V199H273.867V198ZM409.748 191.79L409.22 192.639L409.227 192.643L409.748 191.79ZM387.068 167.49L386.183 167.956L386.19 167.968L387.068 167.49ZM387.068 97.29L386.19 96.8122L386.183 96.8242L387.068 97.29ZM409.748 72.99L409.227 72.1367L409.22 72.1411L409.748 72.99ZM467.258 69.21L466.829 70.1133L466.838 70.1173L467.258 69.21ZM485.348 83.52L484.554 84.1274L484.564 84.1405L484.574 84.1532L485.348 83.52ZM493.448 104.04H494.448V104.005L494.446 103.97L493.448 104.04ZM493.448 159.39L494.446 159.46L494.448 159.425V159.39H493.448ZM485.618 180.45L486.413 181.058L486.421 181.046L485.618 180.45ZM467.528 195.3L467.967 196.199L467.975 196.194L467.984 196.19L467.528 195.3ZM465.638 159.66L466.142 160.524L466.155 160.516L466.168 160.508L465.638 159.66ZM475.898 148.59L475.018 148.116L475.898 148.59ZM475.898 116.46L475.004 116.907L475.014 116.928L475.026 116.949L475.898 116.46ZM465.638 105.39L465.108 106.238L465.116 106.243L465.124 106.247L465.638 105.39ZM435.128 105.39L434.614 104.533L434.606 104.537L434.598 104.542L435.128 105.39ZM424.598 116.46L423.732 115.96L423.725 115.973L423.718 115.986L424.598 116.46ZM424.598 148.32L423.718 148.794L424.598 148.32ZM518.558 198V199H519.558V198H518.558ZM478.058 198H477.058V199H478.058V198ZM478.058 162.63L477.077 162.439L477.058 162.533V162.63H478.058ZM484.268 130.77L485.25 130.961L485.29 130.758L485.245 130.555L484.268 130.77ZM477.248 98.91H476.248V99.0189L476.272 99.1252L477.248 98.91ZM477.248 1.98V0.979996H476.248V1.98H477.248ZM518.558 1.98H519.558V0.979996H518.558V1.98ZM442.958 200.7V199.7C430.705 199.7 419.819 196.772 410.27 190.937L409.748 191.79L409.227 192.643C419.118 198.688 430.371 201.7 442.958 201.7V200.7ZM409.748 191.79L410.277 190.941C400.889 185.096 393.448 177.127 387.947 167.012L387.068 167.49L386.19 167.968C391.849 178.373 399.527 186.604 409.22 192.639L409.748 191.79ZM387.068 167.49L387.953 167.024C382.638 156.926 379.968 145.39 379.968 132.39H378.968H377.968C377.968 145.67 380.698 157.534 386.183 167.956L387.068 167.49ZM378.968 132.39H379.968C379.968 119.39 382.638 107.854 387.953 97.7557L387.068 97.29L386.183 96.8242C380.698 107.246 377.968 119.11 377.968 132.39H378.968ZM387.068 97.29L387.947 97.7678C393.448 87.6534 400.889 79.6839 410.277 73.8389L409.748 72.99L409.22 72.1411C399.527 78.1761 391.849 86.4066 386.19 96.8122L387.068 97.29ZM409.748 72.99L410.27 73.8433C419.819 68.0078 430.705 65.08 442.958 65.08V64.08V63.08C430.371 63.08 419.118 66.0922 409.227 72.1367L409.748 72.99ZM442.958 64.08V65.08C451.829 65.08 459.78 66.7647 466.829 70.1133L467.258 69.21L467.687 68.3067C460.337 64.8153 452.087 63.08 442.958 63.08V64.08ZM467.258 69.21L466.838 70.1173C474.079 73.4731 479.978 78.1434 484.554 84.1274L485.348 83.52L486.143 82.9125C481.359 76.6566 475.197 71.7869 467.679 68.3027L467.258 69.21ZM485.348 83.52L484.574 84.1532C489.302 89.9312 491.925 96.5737 492.451 104.11L493.448 104.04L494.446 103.97C493.892 96.0263 491.115 88.9888 486.122 82.8867L485.348 83.52ZM493.448 104.04H492.448V159.39H493.448H494.448V104.04H493.448ZM493.448 159.39L492.451 159.32C491.924 166.868 489.383 173.705 484.816 179.854L485.618 180.45L486.421 181.046C491.214 174.595 493.892 167.392 494.446 159.46L493.448 159.39ZM485.618 180.45L484.824 179.843C480.241 185.835 474.33 190.693 467.072 194.41L467.528 195.3L467.984 196.19C475.486 192.347 481.635 187.305 486.413 181.057L485.618 180.45ZM467.528 195.3L467.09 194.401C459.859 197.928 451.821 199.7 442.958 199.7V200.7V201.7C452.095 201.7 460.437 199.872 467.967 196.199L467.528 195.3ZM450.248 163.44V164.44C456.332 164.44 461.643 163.148 466.142 160.524L465.638 159.66L465.134 158.796C460.994 161.212 456.045 162.44 450.248 162.44V163.44ZM465.638 159.66L466.168 160.508C470.642 157.712 474.18 153.89 476.779 149.064L475.898 148.59L475.018 148.116C472.576 152.65 469.274 156.208 465.108 158.812L465.638 159.66ZM475.898 148.59L476.779 149.064C479.388 144.218 480.678 138.65 480.678 132.39H479.678H478.678C478.678 138.37 477.448 143.602 475.018 148.116L475.898 148.59ZM479.678 132.39H480.678C480.678 126.131 479.389 120.646 476.771 115.971L475.898 116.46L475.026 116.949C477.448 121.274 478.678 126.409 478.678 132.39H479.678ZM475.898 116.46L476.793 116.013C474.367 111.162 470.815 107.33 466.153 104.533L465.638 105.39L465.124 106.247C469.461 108.85 472.749 112.398 475.004 116.907L475.898 116.46ZM465.638 105.39L466.168 104.542C461.669 101.73 456.441 100.34 450.518 100.34V101.34V102.34C456.116 102.34 460.967 103.65 465.108 106.238L465.638 105.39ZM450.518 101.34V100.34C444.595 100.34 439.284 101.73 434.614 104.533L435.128 105.39L435.643 106.247C439.972 103.65 444.921 102.34 450.518 102.34V101.34ZM435.128 105.39L434.598 104.542C430.131 107.334 426.509 111.147 423.732 115.96L424.598 116.46L425.464 116.96C428.088 112.413 431.486 108.846 435.658 106.238L435.128 105.39ZM424.598 116.46L423.718 115.986C421.11 120.828 419.818 126.304 419.818 132.39H420.818H421.818C421.818 126.596 423.046 121.452 425.479 116.934L424.598 116.46ZM420.818 132.39H419.818C419.818 138.476 421.11 143.952 423.718 148.794L424.598 148.32L425.479 147.846C423.046 143.328 421.818 138.184 421.818 132.39H420.818ZM424.598 148.32L423.718 148.794C426.322 153.63 429.957 157.454 434.614 160.247L435.128 159.39L435.643 158.533C431.299 155.926 427.915 152.37 425.479 147.846L424.598 148.32ZM435.128 159.39L434.614 160.247C439.279 163.047 444.499 164.44 450.248 164.44V163.44V162.44C444.838 162.44 439.977 161.133 435.643 158.533L435.128 159.39ZM518.558 198V197H478.058V198V199H518.558V198ZM478.058 198H479.058V162.63H478.058H477.058V198H478.058ZM478.058 162.63L479.04 162.821L485.25 130.961L484.268 130.77L483.287 130.579L477.077 162.439L478.058 162.63ZM484.268 130.77L485.245 130.555L478.225 98.6948L477.248 98.91L476.272 99.1252L483.292 130.985L484.268 130.77ZM477.248 98.91H478.248V1.98H477.248H476.248V98.91H477.248ZM477.248 1.98V2.98H518.558V1.98V0.979996H477.248V1.98ZM518.558 1.98H517.558V198H518.558H519.558V1.98H518.558ZM547.644 198H546.644V199H547.644V198ZM547.644 66.78V65.78H546.644V66.78H547.644ZM588.954 66.78H589.954V65.78H588.954V66.78ZM588.954 198V199H589.954V198H588.954ZM552.234 42.21L551.499 42.887L551.513 42.9024L551.527 42.9171L552.234 42.21ZM552.234 9.80999L551.527 9.10288L551.52 9.1104L551.512 9.11809L552.234 9.80999ZM584.364 42.21L585.086 42.9019L585.094 42.8945L585.1 42.887L584.364 42.21ZM547.644 198H548.644V66.78H547.644H546.644V198H547.644ZM547.644 66.78V67.78H588.954V66.78V65.78H547.644V66.78ZM588.954 66.78H587.954V198H588.954H589.954V66.78H588.954ZM588.954 198V197H547.644V198V199H588.954V198ZM568.434 48.69V47.69C562.202 47.69 557.062 45.6231 552.942 41.5029L552.234 42.21L551.527 42.9171C556.047 47.4369 561.707 49.69 568.434 49.69V48.69ZM552.234 42.21L552.97 41.5329C549.006 37.2236 547.024 32.0676 547.024 26.01H546.024H545.024C545.024 32.5524 547.183 38.1964 551.499 42.887L552.234 42.21ZM546.024 26.01H547.024C547.024 19.7644 549.01 14.6195 552.956 10.5019L552.234 9.80999L551.512 9.11809C547.178 13.6405 545.024 19.2956 545.024 26.01H546.024ZM552.234 9.80999L552.942 10.5171C557.062 6.3969 562.202 4.32999 568.434 4.32999V3.32999V2.32999C561.707 2.32999 556.047 4.58309 551.527 9.10288L552.234 9.80999ZM568.434 3.32999V4.32999C574.667 4.32999 579.708 6.39615 583.642 10.5019L584.364 9.80999L585.086 9.11809C580.741 4.58384 575.162 2.32999 568.434 2.32999V3.32999ZM584.364 9.80999L583.642 10.5019C587.588 14.6195 589.574 19.7644 589.574 26.01H590.574H591.574C591.574 19.2956 589.42 13.6405 585.086 9.11809L584.364 9.80999ZM590.574 26.01H589.574C589.574 32.0676 587.593 37.2236 583.629 41.5329L584.364 42.21L585.1 42.887C589.416 38.1964 591.574 32.5524 591.574 26.01H590.574ZM584.364 42.21L583.642 41.5181C579.708 45.6238 574.667 47.69 568.434 47.69V48.69V49.69C575.162 49.69 580.741 47.4361 585.086 42.9019L584.364 42.21ZM704.715 198H703.715V199H704.715V198ZM698.235 106.74L697.513 107.432L697.528 107.447L697.543 107.462L698.235 106.74ZM670.425 103.23L670.891 104.115L670.908 104.106L670.926 104.095L670.425 103.23ZM662.325 111.33L663.19 111.831L663.196 111.822L663.201 111.812L662.325 111.33ZM659.355 123.21L658.914 124.107L660.355 124.816V123.21H659.355ZM643.425 115.38H642.425V116.003L642.984 116.277L643.425 115.38ZM668.805 70.56L669.268 71.4462L669.275 71.4423L668.805 70.56ZM721.725 71.1L721.189 71.9445L721.201 71.9521L721.213 71.9593L721.725 71.1ZM746.025 198V199H747.025V198H746.025ZM618.045 198H617.045V199H618.045V198ZM618.045 66.78V65.78H617.045V66.78H618.045ZM659.355 66.78H660.355V65.78H659.355V66.78ZM659.355 198V199H660.355V198H659.355ZM704.715 198H705.715V123.21H704.715H703.715V198H704.715ZM704.715 123.21H705.715C705.715 116.14 703.472 110.374 698.927 106.018L698.235 106.74L697.543 107.462C701.637 111.386 703.715 116.6 703.715 123.21H704.715ZM698.235 106.74L698.957 106.048C694.612 101.514 689.032 99.26 682.305 99.26V100.26V101.26C688.537 101.26 693.578 103.326 697.513 107.432L698.235 106.74ZM682.305 100.26V99.26C677.654 99.26 673.516 100.285 669.924 102.365L670.425 103.23L670.926 104.095C674.173 102.215 677.956 101.26 682.305 101.26V100.26ZM670.425 103.23L669.959 102.345C666.355 104.242 663.517 107.088 661.449 110.848L662.325 111.33L663.201 111.812C665.093 108.372 667.655 105.818 670.891 104.115L670.425 103.23ZM662.325 111.33L661.459 110.829C659.38 114.421 658.355 118.559 658.355 123.21H659.355H660.355C660.355 118.861 661.31 115.079 663.19 111.831L662.325 111.33ZM659.355 123.21L659.796 122.313L643.866 114.483L643.425 115.38L642.984 116.277L658.914 124.107L659.355 123.21ZM643.425 115.38H644.425C644.425 105.27 646.64 96.4488 651.039 88.8826L650.175 88.38L649.31 87.8774C644.709 95.7912 642.425 104.97 642.425 115.38H643.425ZM650.175 88.38L651.039 88.8826C655.445 81.3055 661.516 75.4986 669.268 71.4462L668.805 70.56L668.342 69.6738C660.254 73.9014 653.905 79.9745 649.31 87.8774L650.175 88.38ZM668.805 70.56L669.275 71.4423C677.217 67.207 686.143 65.08 696.075 65.08V64.08V63.08C685.847 63.08 676.593 65.273 668.334 69.6776L668.805 70.56ZM696.075 64.08V65.08C705.627 65.08 713.987 67.3772 721.189 71.9445L721.725 71.1L722.26 70.2555C714.703 65.4628 705.963 63.08 696.075 63.08V64.08ZM721.725 71.1L721.213 71.9593C728.627 76.372 734.443 82.2776 738.677 89.6861L739.545 89.19L740.413 88.6938C736.007 80.9824 729.943 74.828 722.236 70.2407L721.725 71.1ZM739.545 89.19L738.677 89.6861C742.907 97.0898 745.025 105.198 745.025 114.03H746.025H747.025C747.025 104.862 744.822 96.4102 740.413 88.6938L739.545 89.19ZM746.025 114.03H745.025V198H746.025H747.025V114.03H746.025ZM746.025 198V197H704.715V198V199H746.025V198ZM618.045 198H619.045V66.78H618.045H617.045V198H618.045ZM618.045 66.78V67.78H659.355V66.78V65.78H618.045V66.78ZM659.355 66.78H658.355V198H659.355H660.355V66.78H659.355ZM659.355 198V197H618.045V198V199H659.355V198ZM790.107 249.3L790.524 248.391L790.517 248.388L790.107 249.3ZM764.457 228.51L763.749 227.803L763.156 228.396L763.637 229.083L764.457 228.51ZM789.837 203.13L790.603 202.487L789.901 201.651L789.129 202.423L789.837 203.13ZM805.497 215.82L805.049 216.715L805.06 216.72L805.497 215.82ZM850.857 212.58L850.21 211.818L850.204 211.822L850.198 211.827L850.857 212.58ZM859.767 157.77L858.795 157.532L858.767 157.649V157.77H859.767ZM866.787 129.15L867.758 129.388L867.813 129.164L867.764 128.938L866.787 129.15ZM860.577 100.53H859.577V100.637L859.599 100.742L860.577 100.53ZM860.577 66.78V65.78H859.577V66.78H860.577ZM901.077 66.78H902.077V65.78H901.077V66.78ZM891.627 225.27L892.47 225.807L891.627 225.27ZM772.017 161.82L771.139 162.299L772.017 161.82ZM772.017 95.94L772.891 96.4257L772.894 96.4189L772.017 95.94ZM794.157 72.72L794.669 73.579L794.681 73.5717L794.157 72.72ZM850.317 69.21L849.879 70.109L849.892 70.1157L849.906 70.1219L850.317 69.21ZM867.597 83.25L866.78 83.8267L866.789 83.8404L866.799 83.8539L867.597 83.25ZM875.157 104.04H876.157V104.006L876.154 103.972L875.157 104.04ZM875.157 153.99L876.154 154.06L876.157 154.025V153.99H875.157ZM867.597 174.78L866.791 174.188L866.788 174.192L867.597 174.78ZM850.317 188.82L849.888 187.917L850.317 188.82ZM848.967 153.45L848.463 152.586L848.455 152.591L848.447 152.596L848.967 153.45ZM858.687 143.46L857.807 142.984L857.804 142.991L857.8 142.997L858.687 143.46ZM858.687 114.3L857.792 114.747L857.799 114.762L857.807 114.776L858.687 114.3ZM848.967 104.04L848.447 104.894L848.455 104.899L848.463 104.904L848.967 104.04ZM809.277 114.3L810.156 114.776L809.277 114.3ZM809.277 143.19L808.389 143.651L808.393 143.659L808.397 143.666L809.277 143.19ZM818.997 153.45L818.477 154.304L818.485 154.309L818.493 154.314L818.997 153.45ZM828.177 256.86V255.86C813.893 255.86 801.35 253.361 790.524 248.391L790.107 249.3L789.689 250.209C800.823 255.319 813.66 257.86 828.177 257.86V256.86ZM790.107 249.3L790.517 248.388C779.868 243.596 771.464 236.777 765.276 227.937L764.457 228.51L763.637 229.083C770.049 238.243 778.745 245.284 789.696 250.212L790.107 249.3ZM764.457 228.51L765.164 229.217L790.544 203.837L789.837 203.13L789.129 202.423L763.749 227.803L764.457 228.51ZM789.837 203.13L789.07 203.773C793.827 209.444 799.152 213.766 805.049 216.714L805.497 215.82L805.944 214.926C800.321 212.114 795.206 207.976 790.603 202.487L789.837 203.13ZM805.497 215.82L805.06 216.72C811.166 219.68 818.433 221.14 826.827 221.14V220.14V219.14C818.66 219.14 811.707 217.72 805.933 214.92L805.497 215.82ZM826.827 220.14V221.14C837.245 221.14 845.518 218.58 851.515 213.333L850.857 212.58L850.198 211.827C844.675 216.66 836.928 219.14 826.827 219.14V220.14ZM850.857 212.58L851.504 213.342C857.708 208.078 860.767 200.666 860.767 191.25H859.767H858.767C858.767 200.194 855.885 207.002 850.21 211.818L850.857 212.58ZM859.767 191.25H860.767V157.77H859.767H858.767V191.25H859.767ZM859.767 157.77L860.738 158.008L867.758 129.388L866.787 129.15L865.815 128.912L858.795 157.532L859.767 157.77ZM866.787 129.15L867.764 128.938L861.554 100.318L860.577 100.53L859.599 100.742L865.809 129.362L866.787 129.15ZM860.577 100.53H861.577V66.78H860.577H859.577V100.53H860.577ZM860.577 66.78V67.78H901.077V66.78V65.78H860.577V66.78ZM901.077 66.78H900.077V190.17H901.077H902.077V66.78H901.077ZM901.077 190.17H900.077C900.077 203.509 896.966 215.017 890.783 224.733L891.627 225.27L892.47 225.807C898.887 215.723 902.077 203.831 902.077 190.17H901.077ZM891.627 225.27L890.783 224.733C884.584 234.474 876.082 242.095 865.254 247.599L865.707 248.49L866.16 249.382C877.291 243.725 886.069 235.866 892.47 225.807L891.627 225.27ZM865.707 248.49L865.254 247.599C854.432 253.098 842.081 255.86 828.177 255.86V256.86V257.86C842.352 257.86 855.021 255.042 866.16 249.382L865.707 248.49ZM826.287 193.95V192.95C814.393 192.95 803.868 190.112 794.681 184.458L794.157 185.31L793.632 186.162C803.165 192.028 814.06 194.95 826.287 194.95V193.95ZM794.157 185.31L794.681 184.458C785.473 178.792 778.213 171.092 772.894 161.341L772.017 161.82L771.139 162.299C776.62 172.348 784.12 180.308 793.632 186.162L794.157 185.31ZM772.017 161.82L772.894 161.341C767.58 151.598 764.917 140.785 764.917 128.88H763.917H762.917C762.917 141.095 765.653 152.242 771.139 162.299L772.017 161.82ZM763.917 128.88H764.917C764.917 116.792 767.581 105.982 772.891 96.4256L772.017 95.94L771.142 95.4543C765.652 105.338 762.917 116.488 762.917 128.88H763.917ZM772.017 95.94L772.894 96.4189C778.212 86.6703 785.468 79.064 794.669 73.5789L794.157 72.72L793.644 71.8611C784.125 77.536 776.621 85.4097 771.139 95.4611L772.017 95.94ZM794.157 72.72L794.681 73.5717C803.868 67.918 814.393 65.08 826.287 65.08V64.08V63.08C814.06 63.08 803.165 66.002 793.632 71.8683L794.157 72.72ZM826.287 64.08V65.08C835.158 65.08 843.014 66.7649 849.879 70.109L850.317 69.21L850.755 68.311C843.579 64.8151 835.415 63.08 826.287 63.08V64.08ZM850.317 69.21L849.906 70.1219C856.952 73.2927 862.568 77.8608 866.78 83.8267L867.597 83.25L868.414 82.6733C863.985 76.3992 858.081 71.6073 850.727 68.2981L850.317 69.21ZM867.597 83.25L866.799 83.8539C871.174 89.6283 873.631 96.369 874.159 104.108L875.157 104.04L876.154 103.972C875.602 95.8709 873.019 88.7517 868.394 82.6461L867.597 83.25ZM875.157 104.04H874.157V153.99H875.157H876.157V104.04H875.157ZM875.157 153.99L874.159 153.92C873.632 161.476 871.176 168.224 866.791 174.188L867.597 174.78L868.402 175.372C873.017 169.096 875.601 161.984 876.154 154.06L875.157 153.99ZM867.597 174.78L866.788 174.192C862.574 179.985 856.95 184.562 849.888 187.917L850.317 188.82L850.746 189.723C858.083 186.238 863.979 181.455 868.405 175.368L867.597 174.78ZM850.317 188.82L849.888 187.917C842.835 191.267 834.974 192.95 826.287 192.95V193.95V194.95C835.239 194.95 843.398 193.213 850.746 189.723L850.317 188.82ZM834.117 157.23V158.23C840.025 158.23 845.163 156.936 849.487 154.304L848.967 153.45L848.447 152.596C844.491 155.004 839.728 156.23 834.117 156.23V157.23ZM848.967 153.45L849.47 154.314C853.941 151.706 857.32 148.242 859.573 143.923L858.687 143.46L857.8 142.997C855.733 146.958 852.632 150.154 848.463 152.586L848.967 153.45ZM858.687 143.46L859.566 143.936C861.993 139.456 863.197 134.429 863.197 128.88H862.197H861.197C861.197 134.131 860.06 138.824 857.807 142.984L858.687 143.46ZM862.197 128.88H863.197C863.197 123.331 861.993 118.304 859.566 113.824L858.687 114.3L857.807 114.776C860.06 118.936 861.197 123.629 861.197 128.88H862.197ZM858.687 114.3L859.581 113.853C857.331 109.353 853.952 105.79 849.47 103.176L848.967 104.04L848.463 104.904C852.621 107.329 855.722 110.607 857.792 114.747L858.687 114.3ZM848.967 104.04L849.487 103.186C845.163 100.554 840.025 99.26 834.117 99.26V100.26V101.26C839.728 101.26 844.491 102.486 848.447 104.894L848.967 104.04ZM834.117 100.26V99.26C828.38 99.26 823.253 100.557 818.763 103.176L819.267 104.04L819.77 104.904C823.92 102.483 828.693 101.26 834.117 101.26V100.26ZM819.267 104.04L818.763 103.176C814.287 105.787 810.826 109.34 808.397 113.824L809.277 114.3L810.156 114.776C812.407 110.62 815.606 107.333 819.77 104.904L819.267 104.04ZM809.277 114.3L808.397 113.824C805.97 118.304 804.767 123.331 804.767 128.88H805.767H806.767C806.767 123.629 807.903 118.936 810.156 114.776L809.277 114.3ZM805.767 128.88H804.767C804.767 134.082 805.976 139.01 808.389 143.651L809.277 143.19L810.164 142.729C807.897 138.37 806.767 133.758 806.767 128.88H805.767ZM809.277 143.19L808.397 143.666C810.82 148.14 814.183 151.691 818.477 154.304L818.997 153.45L819.517 152.596C815.53 150.169 812.413 146.88 810.156 142.714L809.277 143.19ZM818.997 153.45L818.493 154.314C822.988 156.936 828.207 158.23 834.117 158.23V157.23V156.23C828.506 156.23 823.646 155.004 819.5 152.586L818.997 153.45Z" fill="#DBBFFF" fill-opacity="0.12" mask="url(#path-1-outside-1_6700_709)"/>
</svg>
