<svg width="126" height="33" viewBox="0 0 126 33" fill="none" xmlns="http://www.w3.org/2000/svg">
<path d="M38.8752 26V7.202H42.2812V26H38.8752ZM50.551 26.26C49.407 26.26 48.3757 25.974 47.457 25.402C46.5383 24.83 45.819 24.05 45.299 23.062C44.779 22.074 44.519 20.9647 44.519 19.734C44.519 18.486 44.779 17.368 45.299 16.38C45.819 15.392 46.5383 14.612 47.457 14.04C48.3757 13.468 49.407 13.182 50.551 13.182C51.4523 13.182 52.2583 13.364 52.969 13.728C53.6797 14.092 54.243 14.6033 54.659 15.262C55.0923 15.9033 55.3263 16.6313 55.361 17.446V21.97C55.3263 22.802 55.0923 23.5387 54.659 24.18C54.243 24.8213 53.6797 25.3327 52.969 25.714C52.2583 26.078 51.4523 26.26 50.551 26.26ZM51.175 23.114C52.1283 23.114 52.8997 22.802 53.489 22.178C54.0783 21.5367 54.373 20.7133 54.373 19.708C54.373 19.0493 54.2343 18.4687 53.957 17.966C53.697 17.446 53.3243 17.0473 52.839 16.77C52.371 16.4753 51.8163 16.328 51.175 16.328C50.551 16.328 49.9963 16.4753 49.511 16.77C49.043 17.0473 48.6703 17.446 48.393 17.966C48.133 18.4687 48.003 19.0493 48.003 19.708C48.003 20.384 48.133 20.982 48.393 21.502C48.6703 22.0047 49.043 22.4033 49.511 22.698C49.9963 22.9753 50.551 23.114 51.175 23.114ZM54.191 26V22.62L54.737 19.552L54.191 16.536V13.442H57.571V26H54.191ZM69.0342 26V18.798C69.0342 18.0527 68.8002 17.446 68.3322 16.978C67.8642 16.51 67.2575 16.276 66.5122 16.276C66.0268 16.276 65.5935 16.38 65.2122 16.588C64.8308 16.796 64.5275 17.0907 64.3022 17.472C64.0942 17.8533 63.9902 18.2953 63.9902 18.798L62.6642 18.122C62.6642 17.134 62.8722 16.276 63.2882 15.548C63.7215 14.8027 64.3108 14.222 65.0562 13.806C65.8188 13.39 66.6768 13.182 67.6302 13.182C68.5488 13.182 69.3722 13.416 70.1002 13.884C70.8282 14.3347 71.4002 14.9327 71.8162 15.678C72.2322 16.406 72.4402 17.1947 72.4402 18.044V26H69.0342ZM60.5842 26V13.442H63.9902V26H60.5842ZM80.4878 26.26C79.3264 26.26 78.2864 25.974 77.3678 25.402C76.4491 24.83 75.7211 24.05 75.1838 23.062C74.6638 22.074 74.4038 20.9647 74.4038 19.734C74.4038 18.486 74.6638 17.368 75.1838 16.38C75.7211 15.392 76.4404 14.612 77.3418 14.04C78.2604 13.468 79.3091 13.182 80.4878 13.182C81.3891 13.182 82.1951 13.364 82.9058 13.728C83.6338 14.092 84.2144 14.6033 84.6478 15.262C85.0984 15.9033 85.3411 16.6313 85.3758 17.446V21.918C85.3411 22.7327 85.1071 23.4693 84.6738 24.128C84.2404 24.7867 83.6598 25.3067 82.9318 25.688C82.2038 26.0693 81.3891 26.26 80.4878 26.26ZM81.0598 23.114C81.7011 23.114 82.2558 22.9753 82.7238 22.698C83.2091 22.4033 83.5818 22.0047 83.8418 21.502C84.1191 20.982 84.2578 20.384 84.2578 19.708C84.2578 19.0493 84.1191 18.4687 83.8418 17.966C83.5818 17.446 83.2091 17.0473 82.7238 16.77C82.2558 16.4753 81.7098 16.328 81.0858 16.328C80.4444 16.328 79.8811 16.4753 79.3958 16.77C78.9278 17.0647 78.5551 17.4633 78.2778 17.966C78.0178 18.4687 77.8878 19.0493 77.8878 19.708C77.8878 20.384 78.0178 20.982 78.2778 21.502C78.5551 22.0047 78.9364 22.4033 79.4218 22.698C79.9071 22.9753 80.4531 23.114 81.0598 23.114ZM87.4558 26H84.0758V22.62L84.6218 19.552L84.0498 16.536V7.202H87.4558V26ZM90.4689 26V13.442H93.9009V26H90.4689ZM92.1849 11.414C91.6303 11.414 91.1709 11.232 90.8069 10.868C90.4429 10.4867 90.2609 10.0187 90.2609 9.464C90.2609 8.92667 90.4429 8.46733 90.8069 8.086C91.1709 7.70467 91.6303 7.514 92.1849 7.514C92.7569 7.514 93.2163 7.70467 93.5629 8.086C93.9269 8.46733 94.1089 8.92667 94.1089 9.464C94.1089 10.0187 93.9269 10.4867 93.5629 10.868C93.2163 11.232 92.7569 11.414 92.1849 11.414ZM105.368 26V18.798C105.368 18.0527 105.134 17.446 104.666 16.978C104.198 16.51 103.591 16.276 102.846 16.276C102.361 16.276 101.927 16.38 101.546 16.588C101.165 16.796 100.861 17.0907 100.636 17.472C100.428 17.8533 100.324 18.2953 100.324 18.798L98.9982 18.122C98.9982 17.134 99.2062 16.276 99.6222 15.548C100.055 14.8027 100.645 14.222 101.39 13.806C102.153 13.39 103.011 13.182 103.964 13.182C104.883 13.182 105.706 13.416 106.434 13.884C107.162 14.3347 107.734 14.9327 108.15 15.678C108.566 16.406 108.774 17.1947 108.774 18.044V26H105.368ZM96.9182 26V13.442H100.324V26H96.9182ZM116.77 31.564C115.435 31.564 114.256 31.3213 113.234 30.836C112.211 30.368 111.396 29.7007 110.79 28.834L112.948 26.676C113.433 27.248 113.97 27.6813 114.56 27.976C115.166 28.288 115.894 28.444 116.744 28.444C117.801 28.444 118.633 28.1753 119.24 27.638C119.864 27.1007 120.176 26.3553 120.176 25.402V22.256L120.748 19.5L120.202 16.744V13.442H123.582V25.35C123.582 26.598 123.287 27.6813 122.698 28.6C122.126 29.536 121.328 30.264 120.306 30.784C119.283 31.304 118.104 31.564 116.77 31.564ZM116.614 25.662C115.487 25.662 114.473 25.3933 113.572 24.856C112.67 24.3013 111.96 23.5473 111.44 22.594C110.937 21.6407 110.686 20.5747 110.686 19.396C110.686 18.2173 110.937 17.16 111.44 16.224C111.96 15.288 112.67 14.5513 113.572 14.014C114.473 13.4593 115.487 13.182 116.614 13.182C117.55 13.182 118.373 13.364 119.084 13.728C119.812 14.092 120.384 14.5947 120.8 15.236C121.216 15.86 121.441 16.5967 121.476 17.446V21.398C121.441 22.23 121.207 22.9753 120.774 23.634C120.358 24.2753 119.786 24.778 119.058 25.142C118.347 25.4887 117.532 25.662 116.614 25.662ZM117.29 22.568C117.914 22.568 118.451 22.438 118.902 22.178C119.37 21.9007 119.734 21.528 119.994 21.06C120.254 20.5747 120.384 20.0287 120.384 19.422C120.384 18.798 120.254 18.252 119.994 17.784C119.734 17.316 119.37 16.952 118.902 16.692C118.451 16.4147 117.914 16.276 117.29 16.276C116.666 16.276 116.12 16.4147 115.652 16.692C115.184 16.952 114.82 17.3247 114.56 17.81C114.3 18.278 114.17 18.8153 114.17 19.422C114.17 20.0113 114.3 20.5487 114.56 21.034C114.82 21.502 115.184 21.8747 115.652 22.152C116.12 22.4293 116.666 22.568 117.29 22.568Z" fill="#1D293D"/>
<path d="M0 17C0 11.5792 0 8.86884 1.155 6.85C1.91166 5.52743 2.99997 4.42916 4.31053 3.66558C6.31106 2.5 8.99687 2.5 14.3684 2.5C19.74 2.5 22.4258 2.5 24.4264 3.66558C25.7369 4.42916 26.8252 5.52743 27.5819 6.85C28.7369 8.86884 28.7369 11.5792 28.7369 17C28.7369 22.4208 28.7369 25.1312 27.5819 27.15C26.8252 28.4725 25.7369 29.5708 24.4264 30.3344C22.4258 31.5 19.74 31.5 14.3684 31.5C8.99687 31.5 6.31106 31.5 4.31053 30.3344C2.99997 29.5708 1.91166 28.4725 1.155 27.15C0 25.1312 0 22.4208 0 17Z" fill="#9810FA"/>
<path fill-rule="evenodd" clip-rule="evenodd" d="M20.1485 8.01692C20.7539 7.4326 21.7083 7.42994 22.3168 7.99736L22.3744 8.05373L22.5712 8.26198C24.5646 10.4258 25.3075 12.9473 25.117 15.4099C24.9236 17.9072 23.7816 20.2623 22.1884 22.1233C20.5962 23.9831 18.4705 25.4478 16.1727 26.0835C13.846 26.7271 11.3013 26.5219 9.0924 24.9483C7.2189 23.6135 6.50562 21.4564 6.45716 19.3609C5.40584 18.8405 4.29963 18.1938 3.13897 17.4073L2.83228 17.1971L2.76695 17.1495C2.10801 16.6415 1.95734 15.7013 2.43759 15.0111C2.91798 14.3208 3.8534 14.1335 4.56056 14.5723L4.62858 14.6168L4.90798 14.8086C5.60327 15.2797 6.26672 15.6882 6.89759 16.0408C7.30453 14.5996 7.97885 13.2158 8.86725 12.0753C10.1981 10.3665 12.1935 9 14.6381 9.20389C16.8401 9.38766 18.467 10.5339 19.3068 12.1515C20.12 13.718 20.132 15.6023 19.4213 17.2228C18.6968 18.8748 17.2259 20.2511 15.11 20.8182C13.5874 21.2263 11.8035 21.1983 9.79071 20.6518V20.6525C8.98952 20.4349 8.14983 20.1344 7.27228 19.744C7.07543 19.6564 6.90411 19.7902 7.27228 20.0224C8.30853 20.7647 9.76836 21.3868 10.1908 21.5956C10.3904 21.9215 10.638 22.1889 10.9218 22.391C12.2277 23.3213 13.7552 23.4918 15.3318 23.0556C16.9373 22.6115 18.5464 21.5405 19.7945 20.0826C21.0416 18.6259 21.8457 16.8804 21.9782 15.1679C22.1032 13.552 21.6412 11.8921 20.2491 10.3836L20.1116 10.2382L20.0566 10.1784C19.5089 9.55262 19.5434 8.60119 20.1485 8.01692ZM14.376 12.3349C13.366 12.2506 12.3001 12.7872 11.353 14.0032C10.6317 14.9293 10.0859 16.1326 9.80766 17.3708C11.7898 18.0546 13.267 18.0593 14.2934 17.7842C15.4816 17.4658 16.1941 16.7448 16.5371 15.9629C16.8937 15.1494 16.8572 14.263 16.5113 13.5967C16.192 12.9816 15.5492 12.4328 14.376 12.3349Z" fill="white"/>
</svg>
