<svg width="126" height="33" viewBox="0 0 126 33" fill="none" xmlns="http://www.w3.org/2000/svg">
<path d="M39.508 26V7.202H42.914V26H39.508ZM51.1838 26.26C50.0398 26.26 49.0085 25.974 48.0898 25.402C47.1712 24.83 46.4518 24.05 45.9318 23.062C45.4118 22.074 45.1518 20.9647 45.1518 19.734C45.1518 18.486 45.4118 17.368 45.9318 16.38C46.4518 15.392 47.1712 14.612 48.0898 14.04C49.0085 13.468 50.0398 13.182 51.1838 13.182C52.0852 13.182 52.8912 13.364 53.6018 13.728C54.3125 14.092 54.8758 14.6033 55.2918 15.262C55.7252 15.9033 55.9592 16.6313 55.9938 17.446V21.97C55.9592 22.802 55.7252 23.5387 55.2918 24.18C54.8758 24.8213 54.3125 25.3327 53.6018 25.714C52.8912 26.078 52.0852 26.26 51.1838 26.26ZM51.8078 23.114C52.7612 23.114 53.5325 22.802 54.1218 22.178C54.7112 21.5367 55.0058 20.7133 55.0058 19.708C55.0058 19.0493 54.8672 18.4687 54.5898 17.966C54.3298 17.446 53.9572 17.0473 53.4718 16.77C53.0038 16.4753 52.4492 16.328 51.8078 16.328C51.1838 16.328 50.6292 16.4753 50.1438 16.77C49.6758 17.0473 49.3032 17.446 49.0258 17.966C48.7658 18.4687 48.6358 19.0493 48.6358 19.708C48.6358 20.384 48.7658 20.982 49.0258 21.502C49.3032 22.0047 49.6758 22.4033 50.1438 22.698C50.6292 22.9753 51.1838 23.114 51.8078 23.114ZM54.8238 26V22.62L55.3698 19.552L54.8238 16.536V13.442H58.2038V26H54.8238ZM69.667 26V18.798C69.667 18.0527 69.433 17.446 68.965 16.978C68.497 16.51 67.8903 16.276 67.145 16.276C66.6597 16.276 66.2263 16.38 65.845 16.588C65.4637 16.796 65.1603 17.0907 64.935 17.472C64.727 17.8533 64.623 18.2953 64.623 18.798L63.297 18.122C63.297 17.134 63.505 16.276 63.921 15.548C64.3543 14.8027 64.9437 14.222 65.689 13.806C66.4517 13.39 67.3097 13.182 68.263 13.182C69.1817 13.182 70.005 13.416 70.733 13.884C71.461 14.3347 72.033 14.9327 72.449 15.678C72.865 16.406 73.073 17.1947 73.073 18.044V26H69.667ZM61.217 26V13.442H64.623V26H61.217ZM81.1206 26.26C79.9593 26.26 78.9193 25.974 78.0006 25.402C77.0819 24.83 76.3539 24.05 75.8166 23.062C75.2966 22.074 75.0366 20.9647 75.0366 19.734C75.0366 18.486 75.2966 17.368 75.8166 16.38C76.3539 15.392 77.0733 14.612 77.9746 14.04C78.8933 13.468 79.9419 13.182 81.1206 13.182C82.0219 13.182 82.8279 13.364 83.5386 13.728C84.2666 14.092 84.8473 14.6033 85.2806 15.262C85.7313 15.9033 85.9739 16.6313 86.0086 17.446V21.918C85.9739 22.7327 85.7399 23.4693 85.3066 24.128C84.8733 24.7867 84.2926 25.3067 83.5646 25.688C82.8366 26.0693 82.0219 26.26 81.1206 26.26ZM81.6926 23.114C82.3339 23.114 82.8886 22.9753 83.3566 22.698C83.8419 22.4033 84.2146 22.0047 84.4746 21.502C84.7519 20.982 84.8906 20.384 84.8906 19.708C84.8906 19.0493 84.7519 18.4687 84.4746 17.966C84.2146 17.446 83.8419 17.0473 83.3566 16.77C82.8886 16.4753 82.3426 16.328 81.7186 16.328C81.0773 16.328 80.5139 16.4753 80.0286 16.77C79.5606 17.0647 79.1879 17.4633 78.9106 17.966C78.6506 18.4687 78.5206 19.0493 78.5206 19.708C78.5206 20.384 78.6506 20.982 78.9106 21.502C79.1879 22.0047 79.5693 22.4033 80.0546 22.698C80.5399 22.9753 81.0859 23.114 81.6926 23.114ZM88.0886 26H84.7086V22.62L85.2546 19.552L84.6826 16.536V7.202H88.0886V26ZM91.1018 26V13.442H94.5338V26H91.1018ZM92.8178 11.414C92.2631 11.414 91.8038 11.232 91.4398 10.868C91.0758 10.4867 90.8938 10.0187 90.8938 9.464C90.8938 8.92667 91.0758 8.46733 91.4398 8.086C91.8038 7.70467 92.2631 7.514 92.8178 7.514C93.3898 7.514 93.8491 7.70467 94.1958 8.086C94.5598 8.46733 94.7418 8.92667 94.7418 9.464C94.7418 10.0187 94.5598 10.4867 94.1958 10.868C93.8491 11.232 93.3898 11.414 92.8178 11.414ZM106.001 26V18.798C106.001 18.0527 105.767 17.446 105.299 16.978C104.831 16.51 104.224 16.276 103.479 16.276C102.994 16.276 102.56 16.38 102.179 16.588C101.798 16.796 101.494 17.0907 101.269 17.472C101.061 17.8533 100.957 18.2953 100.957 18.798L99.631 18.122C99.631 17.134 99.839 16.276 100.255 15.548C100.688 14.8027 101.278 14.222 102.023 13.806C102.786 13.39 103.644 13.182 104.597 13.182C105.516 13.182 106.339 13.416 107.067 13.884C107.795 14.3347 108.367 14.9327 108.783 15.678C109.199 16.406 109.407 17.1947 109.407 18.044V26H106.001ZM97.551 26V13.442H100.957V26H97.551ZM117.403 31.564C116.068 31.564 114.889 31.3213 113.867 30.836C112.844 30.368 112.029 29.7007 111.423 28.834L113.581 26.676C114.066 27.248 114.603 27.6813 115.193 27.976C115.799 28.288 116.527 28.444 117.377 28.444C118.434 28.444 119.266 28.1753 119.873 27.638C120.497 27.1007 120.809 26.3553 120.809 25.402V22.256L121.381 19.5L120.835 16.744V13.442H124.215V25.35C124.215 26.598 123.92 27.6813 123.331 28.6C122.759 29.536 121.961 30.264 120.939 30.784C119.916 31.304 118.737 31.564 117.403 31.564ZM117.247 25.662C116.12 25.662 115.106 25.3933 114.205 24.856C113.303 24.3013 112.593 23.5473 112.073 22.594C111.57 21.6407 111.319 20.5747 111.319 19.396C111.319 18.2173 111.57 17.16 112.073 16.224C112.593 15.288 113.303 14.5513 114.205 14.014C115.106 13.4593 116.12 13.182 117.247 13.182C118.183 13.182 119.006 13.364 119.717 13.728C120.445 14.092 121.017 14.5947 121.433 15.236C121.849 15.86 122.074 16.5967 122.109 17.446V21.398C122.074 22.23 121.84 22.9753 121.407 23.634C120.991 24.2753 120.419 24.778 119.691 25.142C118.98 25.4887 118.165 25.662 117.247 25.662ZM117.923 22.568C118.547 22.568 119.084 22.438 119.535 22.178C120.003 21.9007 120.367 21.528 120.627 21.06C120.887 20.5747 121.017 20.0287 121.017 19.422C121.017 18.798 120.887 18.252 120.627 17.784C120.367 17.316 120.003 16.952 119.535 16.692C119.084 16.4147 118.547 16.276 117.923 16.276C117.299 16.276 116.753 16.4147 116.285 16.692C115.817 16.952 115.453 17.3247 115.193 17.81C114.933 18.278 114.803 18.8153 114.803 19.422C114.803 20.0113 114.933 20.5487 115.193 21.034C115.453 21.502 115.817 21.8747 116.285 22.152C116.753 22.4293 117.299 22.568 117.923 22.568Z" fill="white"/>
<path d="M0.632812 17C0.632812 11.5792 0.632812 8.86884 1.78781 6.85C2.54447 5.52743 3.63278 4.42916 4.94335 3.66558C6.94387 2.5 9.62969 2.5 15.0013 2.5C20.3728 2.5 23.0586 2.5 25.0592 3.66558C26.3697 4.42916 27.4581 5.52743 28.2147 6.85C29.3697 8.86884 29.3697 11.5792 29.3697 17C29.3697 22.4208 29.3697 25.1312 28.2147 27.15C27.4581 28.4725 26.3697 29.5708 25.0592 30.3344C23.0586 31.5 20.3728 31.5 15.0013 31.5C9.62969 31.5 6.94387 31.5 4.94335 30.3344C3.63278 29.5708 2.54447 28.4725 1.78781 27.15C0.632812 25.1312 0.632812 22.4208 0.632812 17Z" fill="#9810FA"/>
<path fill-rule="evenodd" clip-rule="evenodd" d="M20.7813 8.01692C21.3867 7.4326 22.3411 7.42994 22.9496 7.99736L23.0073 8.05373L23.204 8.26198C25.1974 10.4258 25.9403 12.9473 25.7498 15.4099C25.5564 17.9072 24.4144 20.2623 22.8213 22.1233C21.229 23.9831 19.1033 25.4478 16.8055 26.0835C14.4788 26.7271 11.9341 26.5219 9.72521 24.9483C7.85171 23.6135 7.13843 21.4564 7.08998 19.3609C6.03865 18.8405 4.93244 18.1938 3.77178 17.4073L3.4651 17.1971L3.39976 17.1495C2.74082 16.6415 2.59015 15.7013 3.0704 15.0111C3.5508 14.3208 4.48621 14.1335 5.19337 14.5723L5.2614 14.6168L5.54079 14.8086C6.23609 15.2797 6.89954 15.6882 7.5304 16.0408C7.93735 14.5996 8.61166 13.2158 9.50006 12.0753C10.8309 10.3665 12.8264 9 15.2709 9.20389C17.4729 9.38766 19.0998 10.5339 19.9396 12.1515C20.7528 13.718 20.7648 15.6023 20.0541 17.2228C19.3296 18.8748 17.8587 20.2511 15.7429 20.8182C14.2202 21.2263 12.4363 21.1983 10.4235 20.6518V20.6525C9.62233 20.4349 8.78264 20.1344 7.90509 19.744C7.70824 19.6564 7.53692 19.7902 7.90509 20.0224C8.94134 20.7647 10.4012 21.3868 10.8236 21.5956C11.0233 21.9215 11.2708 22.1889 11.5546 22.391C12.8605 23.3213 14.3881 23.4918 15.9646 23.0556C17.5701 22.6115 19.1792 21.5405 20.4273 20.0826C21.6744 18.6259 22.4785 16.8804 22.611 15.1679C22.7361 13.552 22.274 11.8921 20.882 10.3836L20.7444 10.2382L20.6894 10.1784C20.1417 9.55262 20.1762 8.60119 20.7813 8.01692ZM15.0088 12.3349C13.9988 12.2506 12.9329 12.7872 11.9858 14.0032C11.2645 14.9293 10.7187 16.1326 10.4405 17.3708C12.4226 18.0546 13.8998 18.0593 14.9262 17.7842C16.1144 17.4658 16.827 16.7448 17.1699 15.9629C17.5266 15.1494 17.49 14.263 17.1441 13.5967C16.8248 12.9816 16.182 12.4328 15.0088 12.3349Z" fill="white"/>
</svg>
