<svg xmlns="http://www.w3.org/2000/svg" version="1.1" xmlns:xlink="http://www.w3.org/1999/xlink" width="29" height="30"><svg width="29" height="30" viewBox="0 0 29 30" fill="none" xmlns="http://www.w3.org/2000/svg">
<path d="M0 15C0 9.57925 0 6.86884 1.155 4.85C1.91166 3.52743 2.99997 2.42916 4.31053 1.66558C6.31106 0.5 8.99687 0.5 14.3684 0.5C19.74 0.5 22.4258 0.5 24.4264 1.66558C25.7369 2.42916 26.8252 3.52743 27.5819 4.85C28.7369 6.86884 28.7369 9.57925 28.7369 15C28.7369 20.4208 28.7369 23.1312 27.5819 25.15C26.8252 26.4725 25.7369 27.5708 24.4264 28.3344C22.4258 29.5 19.74 29.5 14.3684 29.5C8.99687 29.5 6.31106 29.5 4.31053 28.3344C2.99997 27.5708 1.91166 26.4725 1.155 25.15C0 23.1312 0 20.4208 0 15Z" fill="#9810FA"></path>
<path fill-rule="evenodd" clip-rule="evenodd" d="M20.1485 6.01692C20.7539 5.4326 21.7083 5.42994 22.3168 5.99736L22.3744 6.05373L22.5712 6.26198C24.5646 8.42575 25.3075 10.9473 25.117 13.4099C24.9236 15.9072 23.7816 18.2623 22.1884 20.1233C20.5962 21.9831 18.4705 23.4478 16.1727 24.0835C13.846 24.7271 11.3013 24.5219 9.0924 22.9483C7.2189 21.6135 6.50562 19.4564 6.45716 17.3609C5.40584 16.8405 4.29963 16.1938 3.13897 15.4073L2.83228 15.1971L2.76695 15.1495C2.10801 14.6415 1.95734 13.7013 2.43759 13.0111C2.91798 12.3208 3.8534 12.1335 4.56056 12.5723L4.62858 12.6168L4.90798 12.8086C5.60327 13.2797 6.26672 13.6882 6.89759 14.0408C7.30453 12.5996 7.97885 11.2158 8.86725 10.0753C10.1981 8.36652 12.1935 7 14.6381 7.20389C16.8401 7.38766 18.467 8.53392 19.3068 10.1515C20.12 11.718 20.132 13.6023 19.4213 15.2228C18.6968 16.8748 17.2259 18.2511 15.11 18.8182C13.5874 19.2263 11.8035 19.1983 9.79071 18.6518V18.6525C8.98952 18.4349 8.14983 18.1344 7.27228 17.744C7.07543 17.6564 6.90411 17.7902 7.27228 18.0224C8.30853 18.7647 9.76836 19.3868 10.1908 19.5956C10.3904 19.9215 10.638 20.1889 10.9218 20.391C12.2277 21.3213 13.7552 21.4918 15.3318 21.0556C16.9373 20.6115 18.5464 19.5405 19.7945 18.0826C21.0416 16.6259 21.8457 14.8804 21.9782 13.1679C22.1032 11.552 21.6412 9.89206 20.2491 8.38356L20.1116 8.23819L20.0566 8.17838C19.5089 7.55262 19.5434 6.60119 20.1485 6.01692ZM14.376 10.3349C13.366 10.2506 12.3001 10.7872 11.353 12.0032C10.6317 12.9293 10.0859 14.1326 9.80766 15.3708C11.7898 16.0546 13.267 16.0593 14.2934 15.7842C15.4816 15.4658 16.1941 14.7448 16.5371 13.9629C16.8937 13.1494 16.8572 12.263 16.5113 11.5967C16.192 10.9816 15.5492 10.4328 14.376 10.3349Z" fill="white"></path>
</svg><style>@media (prefers-color-scheme: light) { :root { filter: none; } }
@media (prefers-color-scheme: dark) { :root { filter: none; } }
</style></svg>